<svg width="20" height="20" fill="none" xmlns="http://www.w3.org/2000/svg"><g clip-path="url(#clip0_7_1010)"><path d="M18.26 2.778H2.6c-.92 0-1.67.75-1.67 1.67v11.133c0 .917.748 1.67 1.67 1.67h15.66c.918 0 1.67-.747 1.67-1.67V4.448c0-.917-.746-1.67-1.67-1.67zm-.23 1.114l-7.564 7.564-7.63-7.564H18.03zM2.044 15.35V4.672L7.405 9.99l-5.361 5.36zm.787.787l5.365-5.365 1.88 1.864a.557.557 0 00.785-.002l1.833-1.833 5.336 5.336H2.831zm15.986-.788l-5.335-5.335 5.335-5.336V15.35z" fill="#3F92D1"/></g><defs><clipPath id="clip0_7_1010"><path fill="#fff" transform="translate(.93 .515)" d="M0 0h19v19H0z"/></clipPath></defs></svg>