<svg width="20" height="20" fill="none" xmlns="http://www.w3.org/2000/svg"><g clip-path="url(#clip0_7_996)" fill="#3F92D1"><path d="M13.857 19.515a5.295 5.295 0 01-1.817-.325 19.366 19.366 0 01-7.032-4.482A19.364 19.364 0 01.526 7.676a5.255 5.255 0 01-.268-2.584 5.38 5.38 0 012.77-3.945A5.29 5.29 0 015.56.515c.28 0 .521.195.58.469l.932 4.349a.594.594 0 01-.16.544L5.32 7.47a15.628 15.628 0 006.926 6.926l1.593-1.592a.594.594 0 01.544-.161l4.349.932c.274.059.47.3.47.58 0 .9-.214 1.753-.634 2.534a5.38 5.38 0 01-4.712 2.826zM5.087 1.728A4.112 4.112 0 002.144 3.48a4.09 4.09 0 00-.503 3.79 18.009 18.009 0 0010.804 10.804 4.09 4.09 0 003.79-.503 4.112 4.112 0 001.752-2.941l-3.538-.758-1.663 1.663a.594.594 0 01-.672.117 16.812 16.812 0 01-8.051-8.05.594.594 0 01.117-.673l1.663-1.663-.758-3.538zm13.52 8.88a.594.594 0 01-.594-.594c0-4.583-3.729-8.312-8.312-8.312a.594.594 0 010-1.187c2.538 0 4.923.988 6.717 2.782a9.438 9.438 0 012.783 6.717.594.594 0 01-.594.594z"/><path d="M16.232 10.608a.594.594 0 01-.594-.594 5.944 5.944 0 00-5.937-5.937.594.594 0 010-1.187 7.133 7.133 0 017.125 7.124.594.594 0 01-.594.594z"/><path d="M13.857 10.608a.594.594 0 01-.593-.594A3.566 3.566 0 009.7 6.453a.594.594 0 010-1.187c2.62 0 4.75 2.13 4.75 4.75a.594.594 0 01-.594.593z"/></g><defs><clipPath id="clip0_7_996"><path fill="#fff" transform="translate(.2 .515)" d="M0 0h19v19H0z"/></clipPath></defs></svg>