<svg width="216" height="68" fill="none" xmlns="http://www.w3.org/2000/svg"><rect x="54.146" y="11.514" width="161.13" height="41.163" rx="6" fill="#41B4E6"/><path d="M92.47 38.596h-1.697V27.188h-6.31v11.408h-1.688V25.799h9.694v12.797zm2.39-4.843c0-.931.182-1.77.545-2.514.369-.744.879-1.318 1.53-1.722.655-.404 1.403-.607 2.24-.607 1.295 0 2.341.449 3.138 1.345.803.897 1.204 2.089 1.204 3.577v.115c0 .925-.179 1.757-.536 2.496a4.007 4.007 0 01-1.52 1.714c-.657.41-1.413.615-2.268.615-1.29 0-2.335-.448-3.138-1.345-.797-.896-1.195-2.083-1.195-3.56v-.114zm1.635.194c0 1.054.243 1.9.73 2.54.491.638 1.148.958 1.968.958.826 0 1.482-.323 1.969-.967.486-.65.729-1.559.729-2.725 0-1.043-.249-1.887-.747-2.531-.492-.65-1.148-.976-1.969-.976-.802 0-1.45.32-1.942.958-.492.639-.738 1.553-.738 2.743zm16.84 4.649h-1.626v-8.165h-4.377v8.165h-1.635v-9.51h7.638v9.51zm10.643-4.65c0 1.448-.331 2.614-.993 3.499-.662.884-1.559 1.327-2.69 1.327-1.154 0-2.062-.366-2.724-1.099v4.58h-1.626V29.085h1.485l.079 1.055c.662-.82 1.582-1.23 2.76-1.23 1.143 0 2.045.43 2.707 1.291.668.862 1.002 2.06 1.002 3.595v.15zm-1.626-.184c0-1.072-.228-1.919-.685-2.54-.457-.621-1.084-.932-1.881-.932-.985 0-1.723.437-2.215 1.31v4.544c.486.867 1.23 1.3 2.232 1.3.78 0 1.398-.307 1.855-.922.463-.621.694-1.541.694-2.76zm3.27-.009c0-.931.181-1.77.545-2.514.369-.744.878-1.318 1.529-1.722.656-.404 1.403-.607 2.241-.607 1.295 0 2.341.449 3.138 1.345.803.897 1.204 2.089 1.204 3.577v.115c0 .925-.179 1.757-.536 2.496a4.01 4.01 0 01-1.521 1.714c-.656.41-1.412.615-2.267.615-1.289 0-2.335-.448-3.138-1.345-.797-.896-1.195-2.083-1.195-3.56v-.114zm1.634.194c0 1.054.244 1.9.73 2.54.492.638 1.148.958 1.969.958.826 0 1.482-.323 1.968-.967.487-.65.73-1.559.73-2.725 0-1.043-.249-1.887-.747-2.531-.492-.65-1.149-.976-1.969-.976-.803 0-1.45.32-1.942.958-.492.639-.739 1.553-.739 2.743zm13.237-4.316c1.195 0 2.15.401 2.865 1.204.721.797 1.081 1.849 1.081 3.155v.15c0 .896-.173 1.7-.519 2.408a3.859 3.859 0 01-1.494 1.644c-.644.386-1.388.58-2.232.58-1.277 0-2.306-.425-3.085-1.275-.779-.855-1.169-2-1.169-3.436v-.791c0-1.998.369-3.586 1.107-4.764.745-1.178 1.84-1.895 3.288-2.153.82-.147 1.374-.325 1.661-.536a1.02 1.02 0 00.43-.87h1.336c0 .732-.167 1.303-.501 1.713-.328.41-.855.7-1.582.87l-1.213.273c-.966.229-1.693.615-2.179 1.16-.481.54-.794 1.26-.941 2.162.862-.996 1.91-1.494 3.147-1.494zm-.317 1.336c-.797 0-1.429.27-1.898.809-.469.533-.703 1.274-.703 2.223v.14c0 1.02.234 1.829.703 2.427.475.591 1.113.887 1.916.887.809 0 1.447-.298 1.916-.896.469-.598.703-1.47.703-2.62 0-.896-.237-1.613-.712-2.152-.469-.546-1.11-.818-1.925-.818zm5.66 2.786c0-.931.182-1.77.545-2.514.37-.744.879-1.318 1.53-1.722.656-.404 1.403-.607 2.241-.607 1.295 0 2.341.449 3.138 1.345.802.897 1.204 2.089 1.204 3.577v.115c0 .925-.179 1.757-.536 2.496a4.01 4.01 0 01-1.521 1.714c-.656.41-1.412.615-2.268.615-1.289 0-2.334-.448-3.137-1.345-.797-.896-1.196-2.083-1.196-3.56v-.114zm1.635.194c0 1.054.243 1.9.73 2.54.492.638 1.148.958 1.968.958.827 0 1.483-.323 1.969-.967.487-.65.73-1.559.73-2.725 0-1.043-.249-1.887-.747-2.531-.493-.65-1.149-.976-1.969-.976-.803 0-1.45.32-1.942.958-.493.639-.739 1.553-.739 2.743zm9.211 4.649v-9.51h3.709c1.266 0 2.236.223 2.909.668.68.44 1.02 1.087 1.02 1.943 0 .439-.132.838-.396 1.195-.263.351-.653.621-1.169.808.575.135 1.035.399 1.38.791.352.393.528.862.528 1.407 0 .873-.323 1.54-.967 2.004-.639.462-1.544.694-2.716.694h-4.298zm1.626-4.175v2.865h2.69c.679 0 1.186-.126 1.52-.378.34-.252.51-.606.51-1.063 0-.95-.697-1.424-2.092-1.424h-2.628zm0-1.3h2.101c1.523 0 2.285-.446 2.285-1.337 0-.89-.721-1.35-2.162-1.38h-2.224v2.716zm14.379 5.475c-.094-.188-.17-.521-.228-1.002-.756.785-1.659 1.178-2.707 1.178-.938 0-1.708-.264-2.312-.791-.598-.534-.896-1.207-.896-2.022 0-.99.375-1.758 1.125-2.303.755-.55 1.816-.826 3.181-.826h1.582v-.747c0-.568-.17-1.02-.51-1.353-.339-.34-.84-.51-1.503-.51-.58 0-1.066.146-1.458.44-.393.292-.589.647-.589 1.063h-1.635c0-.475.167-.932.501-1.371.34-.445.797-.797 1.371-1.055a4.643 4.643 0 011.907-.387c1.096 0 1.954.276 2.575.827.621.545.944 1.298.967 2.258v4.377c0 .873.111 1.568.334 2.083v.141h-1.705zm-2.698-1.24c.51 0 .993-.131 1.45-.395.457-.264.788-.606.993-1.028v-1.951h-1.274c-1.992 0-2.989.583-2.989 1.749 0 .51.17.908.51 1.195.34.287.777.43 1.31.43zm13.544-6.951h-3.191v8.191h-1.626v-8.191h-3.129v-1.319h7.946v1.319zm3.357 1.96h2.47c1.078.011 1.931.292 2.558.843.626.551.94 1.298.94 2.242 0 .949-.322 1.71-.967 2.285-.644.574-1.512.861-2.601.861h-4.026v-9.51h1.626v3.279zm0 1.327v3.577h2.417c.61 0 1.081-.155 1.415-.466.334-.316.501-.747.501-1.292 0-.527-.164-.958-.492-1.292-.322-.34-.776-.516-1.362-.527h-2.479z" fill="#fff"/><path d="M34.075 63.932c16.515 0 29.903-13.388 29.903-29.903S50.59 4.126 34.075 4.126c-16.514 0-29.902 13.388-29.902 29.903S17.56 63.932 34.075 63.932z" fill="#41B4E6" stroke="#ECEFF1" stroke-width="7"/><path d="M60.479 34.029c0-.644-.024-1.28-.07-1.913L49.467 21.174 18.685 33.282l11.777 11.777.155.556.2-.201-.2.201 13.028 13.028c9.851-3.832 16.834-13.407 16.834-24.614z" fill="#0091C8"/><path d="M31.512 37.876l11.932 9.008 6.023-25.71-30.782 12.108 9.366 3.102 17.095-11.466-13.634 12.958z" fill="#fff"/><path d="M28.051 36.384l2.566 9.231.895-7.74 13.634-12.957L28.05 36.384z" fill="#D2D2D7"/><path d="M35.39 40.803l-4.773 4.812.895-7.74 3.878 2.928z" fill="#B9B9BE"/></svg>