<svg width="210" height="64" fill="none" xmlns="http://www.w3.org/2000/svg"><rect x="48.376" y="9.514" width="161.13" height="41.163" rx="6" fill="#4CAF50"/><path d="M86.7 36.596h-1.697V25.188h-6.31v11.408h-1.688V23.799H86.7v12.797zm2.39-4.843c0-.931.182-1.77.545-2.514.37-.744.88-1.318 1.53-1.722.656-.404 1.403-.607 2.24-.607 1.296 0 2.342.449 3.139 1.345.802.897 1.204 2.089 1.204 3.577v.115c0 .925-.179 1.757-.537 2.496a4.004 4.004 0 01-1.52 1.714c-.656.41-1.412.615-2.267.615-1.29 0-2.336-.448-3.138-1.345-.797-.896-1.195-2.083-1.195-3.56v-.114zm1.635.194c0 1.054.243 1.9.73 2.54.492.638 1.148.958 1.969.958.826 0 1.482-.323 1.968-.967.487-.65.73-1.559.73-2.725 0-1.043-.25-1.887-.747-2.531-.493-.65-1.149-.976-1.97-.976-.802 0-1.45.32-1.942.958-.492.639-.738 1.553-.738 2.743zm16.84 4.649h-1.626v-8.165h-4.377v8.165h-1.635v-9.51h7.638v9.51zm10.644-4.65c0 1.448-.331 2.614-.994 3.499-.662.884-1.558 1.327-2.689 1.327-1.154 0-2.062-.366-2.725-1.099v4.58h-1.626V27.085h1.486l.079 1.055c.662-.82 1.582-1.23 2.76-1.23 1.142 0 2.045.43 2.707 1.291.668.862 1.002 2.06 1.002 3.595v.15zm-1.626-.184c0-1.072-.229-1.919-.686-2.54-.457-.621-1.084-.932-1.881-.932-.984 0-1.722.437-2.215 1.31v4.544c.487.867 1.231 1.3 2.233 1.3.779 0 1.397-.307 1.854-.922.463-.621.695-1.541.695-2.76zm3.269-.009c0-.931.182-1.77.545-2.514.369-.744.879-1.318 1.529-1.722.657-.404 1.404-.607 2.242-.607 1.295 0 2.34.449 3.137 1.345.803.897 1.204 2.089 1.204 3.577v.115c0 .925-.178 1.757-.536 2.496a4 4 0 01-1.52 1.714c-.656.41-1.412.615-2.268.615-1.289 0-2.335-.448-3.138-1.345-.796-.896-1.195-2.083-1.195-3.56v-.114zm1.635.194c0 1.054.243 1.9.729 2.54.493.638 1.149.958 1.969.958.826 0 1.483-.323 1.969-.967.486-.65.729-1.559.729-2.725 0-1.043-.249-1.887-.747-2.531-.492-.65-1.148-.976-1.968-.976-.803 0-1.451.32-1.943.958-.492.639-.738 1.553-.738 2.743zm13.236-4.316c1.196 0 2.151.401 2.866 1.204.72.797 1.081 1.849 1.081 3.155v.15c0 .896-.173 1.7-.519 2.408a3.872 3.872 0 01-1.494 1.644c-.645.386-1.389.58-2.233.58-1.277 0-2.305-.425-3.085-1.275-.779-.855-1.168-2-1.168-3.436v-.791c0-1.998.369-3.586 1.107-4.764.744-1.178 1.84-1.895 3.287-2.153.82-.147 1.374-.325 1.661-.536.287-.211.431-.501.431-.87h1.336c0 .732-.167 1.303-.501 1.713-.328.41-.856.7-1.582.87l-1.213.273c-.967.229-1.693.615-2.18 1.16-.48.54-.794 1.26-.94 2.162.861-.996 1.91-1.494 3.146-1.494zm-.316 1.336c-.797 0-1.43.27-1.899.809-.468.533-.703 1.274-.703 2.223v.14c0 1.02.235 1.829.703 2.427.475.591 1.114.887 1.916.887.809 0 1.448-.298 1.916-.896.469-.598.704-1.47.704-2.62 0-.896-.238-1.614-.712-2.153-.469-.544-1.111-.817-1.925-.817zm5.66 2.786c0-.931.182-1.77.545-2.514.369-.744.879-1.318 1.529-1.722.656-.404 1.404-.607 2.241-.607 1.295 0 2.341.449 3.138 1.345.803.897 1.204 2.089 1.204 3.577v.115c0 .925-.178 1.757-.536 2.496a4 4 0 01-1.52 1.714c-.657.41-1.413.615-2.268.615-1.289 0-2.335-.448-3.138-1.345-.797-.896-1.195-2.083-1.195-3.56v-.114zm1.635.194c0 1.054.243 1.9.729 2.54.492.638 1.149.958 1.969.958.826 0 1.482-.323 1.969-.967.486-.65.729-1.559.729-2.725 0-1.043-.249-1.887-.747-2.531-.492-.65-1.148-.976-1.969-.976-.802 0-1.45.32-1.942.958-.492.639-.738 1.553-.738 2.743zm9.211 4.649v-9.51h3.709c1.265 0 2.235.223 2.909.668.68.44 1.019 1.087 1.019 1.943 0 .439-.131.837-.395 1.195-.264.351-.653.621-1.169.809.574.134 1.034.398 1.38.79.351.393.527.862.527 1.407 0 .873-.322 1.54-.967 2.004-.638.462-1.544.694-2.715.694h-4.298zm1.626-4.175v2.865h2.689c.68 0 1.187-.126 1.521-.378.34-.252.509-.606.509-1.063 0-.95-.697-1.424-2.091-1.424h-2.628zm0-1.3h2.1c1.524 0 2.285-.446 2.285-1.337 0-.89-.72-1.35-2.162-1.38h-2.223v2.716zm14.379 5.475c-.094-.188-.17-.521-.229-1.002-.756.785-1.658 1.178-2.707 1.178-.937 0-1.708-.264-2.311-.791-.598-.534-.897-1.207-.897-2.022 0-.99.375-1.758 1.125-2.303.756-.55 1.816-.826 3.182-.826h1.582v-.747c0-.568-.17-1.02-.51-1.353-.34-.34-.841-.51-1.503-.51-.58 0-1.066.146-1.459.44-.393.292-.589.647-.589 1.063h-1.635c0-.475.167-.932.501-1.371.34-.445.797-.797 1.371-1.055a4.648 4.648 0 011.908-.387c1.095 0 1.954.276 2.575.827.621.545.943 1.297.967 2.258v4.377c0 .873.111 1.568.334 2.083v.141h-1.705zm-2.699-1.24c.51 0 .994-.131 1.451-.395.457-.264.788-.606.993-1.028v-1.951h-1.275c-1.992 0-2.988.583-2.988 1.749 0 .51.17.908.51 1.195.34.287.776.43 1.309.43zm13.544-6.951h-3.19v8.191h-1.626v-8.191h-3.129v-1.319h7.945v1.319zm3.358 1.96h2.469c1.079.011 1.931.293 2.558.843.627.551.941 1.298.941 2.242 0 .949-.323 1.71-.967 2.285-.645.574-1.512.861-2.602.861h-4.025v-9.51h1.626v3.279zm0 1.327v3.577h2.417c.609 0 1.081-.155 1.415-.466.334-.316.501-.747.501-1.292 0-.527-.164-.958-.492-1.292-.323-.34-.777-.516-1.363-.527h-2.478z" fill="#fff"/><g clip-path="url(#clip0_1_246)"><path d="M54.173 9.892C48.164 4.136 40.258.885 31.838.885 7.67.885-7.505 26.828 4.563 47.465L.093 63.556l16.696-4.314c7.274 3.894 13.233 3.549 15.064 3.779 28.023 0 41.973-33.592 22.28-53.028l.04-.101z" fill="#ECEFF1"/><path d="M31.896 57.683l-.016-.002h-.042c-8.386 0-13.744-3.935-14.271-4.163l-9.883 2.546 2.648-9.518-.63-.98a25.595 25.595 0 01-3.995-13.734c0-22.961 28.318-34.443 44.705-18.214 16.348 16.06 4.87 44.065-18.516 44.065z" fill="#4CAF50"/><path d="M46.233 38.245l-.024.196c-.793-.392-4.657-2.264-5.377-2.523-1.615-.593-1.16-.094-4.261 3.426-.461.51-.92.549-1.703.196-.79-.392-3.328-1.214-6.333-3.878-2.34-2.076-3.91-4.622-4.374-5.405-.773-1.321.843-1.51 2.313-4.267.264-.548.13-.98-.065-1.368-.198-.392-1.771-4.23-2.43-5.76-.633-1.526-1.284-1.332-1.771-1.332-1.518-.131-2.628-.11-3.606.898-4.253 4.632-3.18 9.41.459 14.492 7.153 9.276 10.963 10.984 17.932 13.355 1.881.592 3.597.509 4.954.316 1.513-.238 4.657-1.883 5.313-3.724.672-1.841.672-3.369.475-3.721-.195-.353-.712-.549-1.502-.901z" fill="#FAFAFA"/></g><defs><clipPath id="clip0_1_246"><path fill="#fff" transform="translate(.093 .885)" d="M0 0h63.251v62.671H0z"/></clipPath></defs></svg>